# xmcd
#
# Track frame offsets:
# 150
# 12274
# 23677
# 33854
# 44414
# 53581
# 68097
# 82906
# 93323
# 106972
# 123875
# 133334
# 145604
# 158609
# 168204
# 178332
#
# Disc length: 2495 seconds
#
#
# Revision: 0
# Processed by: cddbd v1.5.1PL0 Copyright (c) Steve Scherf et al.
# Submitted via: FreeRIP 2.70 
#
DISCID=c109bd10
DTITLE=Gilbert Bécaud - Quand tu danses
DYEAR=2004
DGENRE=Chanson
TTITLE0=Qnad tu danses
TTITLE1=Me-que Me-que
TTITLE2=Mes mains
TTITLE3=Viens
TTITLE4=C'etait mon copain
TTITLE5=Les croix
TTITLE6=La ballade des baladins
TTITLE7=Ah! Dites moi pourquoi je t'aime
TTITLE8=Il faut batir ta maison
TTITLE9=donne-moi
TTITLE10=ding-dong, sonnez
TTITLE11=Accroche-toi a ton etoile
TTITLE12=Moi je me mefie des anges
TTITLE13=madame pompadour
TTITLE14=Un nouveau printemps
TTITLE15=Moi je sais
EXTD=
EXTT0=
EXTT1=
EXTT2=
EXTT3=
EXTT4=
EXTT5=
EXTT6=
EXTT7=
EXTT8=
EXTT9=
EXTT10=
EXTT11=
EXTT12=
EXTT13=
EXTT14=
EXTT15=
PLAYORDER=
